<?xml version="1.0" encoding="UTF-8"?><svg id="Layer_2" xmlns="http://www.w3.org/2000/svg" viewBox="0 0 436.41 452.5"><defs><style>.cls-1{fill:#fff;}</style></defs><g id="Layer_1-2"><g><g><path class="cls-1" d="M436.26,249.65c0-50.98-.15-101.97,.14-152.95,.05-9.13-3.14-15.54-10.45-20.65-29.49-20.58-59.09-41-88.18-62.12-14.03-10.19-28.93-15.07-46.2-13.7-33.04,2.61-66.1,4.89-99.16,7.32-34.38,2.52-68.76,5.04-103.14,7.6-21.59,1.61-43.2,3.02-64.75,5.05C11.48,21.42,3.45,29.45,1.1,42.39c-.59,3.25-.8,6.61-.8,9.92C.26,140.28,.58,228.26,0,316.23c-.12,18.14,5.47,33.07,16.34,46.88,15.34,19.5,30.41,39.21,45.6,58.83,3.16,4.08,6.65,7.95,9.44,12.27,9.09,14.07,21.97,19.24,38.39,18.15,37.06-2.46,74.15-4.42,111.23-6.63,41.9-2.5,83.8-5.02,125.69-7.58,20.78-1.27,41.58-2.32,62.32-4.05,17.96-1.5,26.76-11.46,27.23-29.49,.04-1.67,.02-3.33,.02-5,0-49.99,0-99.97,0-149.96Z"/><path d="M436.26,249.65c0,49.99,0,99.97,0,149.96,0,1.67,.02,3.33-.02,5-.47,18.03-9.27,27.99-27.23,29.49-20.74,1.73-41.54,2.78-62.32,4.05-41.89,2.56-83.79,5.08-125.69,7.58-37.08,2.21-74.17,4.17-111.23,6.63-16.42,1.09-29.3-4.08-38.39-18.15-2.79-4.32-6.28-8.19-9.44-12.27-15.19-19.62-30.26-39.33-45.6-58.83C5.47,349.3-.12,334.37,0,316.23,.58,228.26,.26,140.28,.3,52.31c0-3.31,.21-6.67,.8-9.92,2.36-12.94,10.38-20.97,23.43-22.2,21.55-2.02,43.16-3.44,64.75-5.05,34.38-2.56,68.76-5.07,103.14-7.6,33.05-2.43,66.12-4.71,99.16-7.32,17.27-1.37,32.17,3.51,46.2,13.7,29.09,21.13,58.69,41.55,88.18,62.12,7.32,5.11,10.51,11.52,10.45,20.65-.3,50.98-.14,101.97-.14,152.95ZM249.8,111.49c-33.93,1.93-67.86,3.85-101.79,5.81-14.8,.86-29.6,1.74-44.39,2.79-7.68,.55-11.47,4.14-12.7,11.64-.4,2.45-.47,4.97-.47,7.46-.02,85.99-.02,171.98-.02,257.97,0,1.5-.05,3,.05,4.5,.68,10.09,5.45,15.12,15.5,16.22,2.31,.25,4.67,.28,6.99,.15,19.13-1.06,38.26-2.18,57.38-3.29,43.57-2.53,87.15-5.07,130.72-7.58,29.44-1.7,58.88-3.31,88.32-5.09,10.47-.63,15.27-5.35,16.57-15.78,.23-1.81,.22-3.66,.22-5.49,0-86.82,.01-173.65,0-260.47,0-11.35-3.15-18.11-17.69-17.15-46.21,3.06-92.46,5.57-138.69,8.3Zm124.14-38.67c.24-.44,.48-.88,.72-1.31-1.72-1.78-3.22-3.86-5.19-5.3-14.11-10.31-28.36-20.43-42.48-30.73-9.65-7.04-20.42-10.64-32.28-9.92-23.11,1.4-46.2,3.22-69.29,4.89-49.51,3.59-99.02,7.17-148.53,10.8-10.62,.78-21.26,1.59-31.83,2.84-2.04,.24-4.72,2.31-5.4,4.16-.47,1.26,1.65,4.09,3.27,5.4,11.65,9.42,23.47,18.62,35.23,27.91,6.65,5.25,14.11,8.03,22.66,7.67,3.99-.17,8-.13,11.99-.37,35.92-2.18,71.83-4.46,107.75-6.61,47.73-2.86,95.46-5.61,143.19-8.44,3.4-.2,6.79-.65,10.19-.99Z"/><path class="cls-1" d="M373.95,72.82c-3.4,.34-6.79,.79-10.19,.99-47.73,2.83-95.46,5.59-143.19,8.44-35.92,2.15-71.83,4.42-107.75,6.61-3.99,.24-7.99,.2-11.99,.37-8.55,.37-16.01-2.42-22.66-7.67-11.76-9.28-23.58-18.49-35.23-27.91-1.62-1.31-3.74-4.14-3.27-5.4,.68-1.85,3.37-3.92,5.4-4.16,10.57-1.26,21.2-2.06,31.83-2.84,49.51-3.63,99.02-7.22,148.53-10.8,23.09-1.67,46.18-3.49,69.29-4.89,11.86-.72,22.63,2.88,32.28,9.92,14.12,10.3,28.37,20.42,42.48,30.73,1.97,1.44,3.47,3.52,5.19,5.3-.24,.44-.48,.88-.72,1.31Z"/></g><path d="M246.2,346.87h55.16c2.08-6.15,4.3-11.61,6.64-16.41,2.34-4.79,4.61-8.91,6.8-12.34,2.39-3.85,4.74-7.34,7.03-10.47l22.34,3.12-4.06,66.56H166.2l-3.12-15.94c2.08-1.25,4.43-2.55,7.03-3.91,2.08-1.04,4.58-2.16,7.5-3.36,2.92-1.2,6.09-2.21,9.53-3.05V179.53c-3.44-.83-6.62-1.82-9.53-2.97-2.92-1.15-5.42-2.29-7.5-3.44-2.61-1.25-4.95-2.5-7.03-3.75l3.12-16.09h100.94l3.12,16.09c-2.08,1.25-4.32,2.5-6.72,3.75-2.08,1.04-4.64,2.16-7.66,3.36-3.02,1.2-6.25,2.21-9.69,3.05v167.34Z"/></g></g></svg>